<svg width="24" height="24" viewBox="0 0 24 24" fill="none" xmlns="http://www.w3.org/2000/svg">
<path d="M11.9998 14.2939C12.6226 14.2912 13.2191 14.0426 13.6594 13.6022C14.0998 13.1618 14.3485 12.5654 14.3512 11.9426C14.3547 11.6329 14.2962 11.3256 14.1793 11.0387C14.0623 10.7519 13.8892 10.4913 13.6702 10.2723C13.4512 10.0532 13.1906 9.88016 12.9037 9.76321C12.6169 9.64626 12.3096 9.5878 11.9998 9.59124C11.3762 9.59124 10.7781 9.83897 10.3372 10.2799C9.89621 10.7209 9.64848 11.319 9.64848 11.9426C9.64848 12.5662 9.89621 13.1643 10.3372 13.6052C10.7781 14.0462 11.3762 14.2939 11.9998 14.2939V14.2939ZM11.9998 10.2221C12.2269 10.2179 12.4525 10.2596 12.6631 10.3446C12.8738 10.4296 13.0651 10.5561 13.2257 10.7167C13.3863 10.8773 13.5129 11.0687 13.5979 11.2793C13.6829 11.4899 13.7246 11.7155 13.7204 11.9426C13.7215 12.1693 13.6778 12.3939 13.5918 12.6036C13.5058 12.8133 13.3793 13.0039 13.2194 13.1646C13.0595 13.3252 12.8695 13.4527 12.6602 13.5397C12.4509 13.6267 12.2265 13.6714 11.9999 13.6714C11.7733 13.6714 11.5489 13.6267 11.3396 13.5397C11.1303 13.4527 10.9403 13.3252 10.7804 13.1646C10.6205 13.0039 10.4939 12.8133 10.408 12.6036C10.322 12.3939 10.2783 12.1693 10.2794 11.9426C10.2752 11.7155 10.3169 11.4899 10.4019 11.2793C10.4868 11.0687 10.6134 10.8774 10.774 10.7168C10.9346 10.5562 11.1259 10.4296 11.3365 10.3446C11.5471 10.2596 11.7727 10.2179 11.9998 10.2221ZM8.8456 16.8173H15.1542C15.6249 16.815 16.0758 16.6269 16.4087 16.294C16.7416 15.9611 16.9297 15.5103 16.932 15.0395V8.84567C16.9296 8.37488 16.7416 7.92403 16.4087 7.59112C16.0758 7.25821 15.6249 7.07013 15.1542 7.06776H8.8456C8.37481 7.07013 7.92397 7.25821 7.59107 7.59112C7.25817 7.92404 7.07011 8.37488 7.06776 8.84567V15.0395C7.0701 15.5103 7.25816 15.9611 7.59106 16.294C7.92397 16.6269 8.37481 16.815 8.8456 16.8173V16.8173ZM7.98531 8.84567C7.98272 8.73953 8.00172 8.63397 8.04116 8.53538C8.08059 8.4368 8.13964 8.34726 8.21472 8.27218C8.28979 8.1971 8.37934 8.13805 8.47792 8.09862C8.5765 8.05918 8.68207 8.04018 8.78821 8.04276H15.0968C15.203 8.04017 15.3085 8.05917 15.4071 8.0986C15.5057 8.13804 15.5953 8.19708 15.6703 8.27216C15.7454 8.34724 15.8045 8.43679 15.8439 8.53538C15.8833 8.63396 15.9023 8.73953 15.8997 8.84567V15.0395C15.9023 15.1457 15.8833 15.2512 15.8439 15.3498C15.8045 15.4484 15.7454 15.538 15.6704 15.6131C15.5953 15.6882 15.5057 15.7472 15.4071 15.7867C15.3085 15.8261 15.203 15.8451 15.0968 15.8425H8.78821C8.68206 15.8451 8.57649 15.8261 8.4779 15.7866C8.37931 15.7472 8.28977 15.6881 8.21469 15.6131C8.13961 15.538 8.08056 15.4484 8.04113 15.3498C8.00171 15.2512 7.98271 15.1457 7.98531 15.0395V8.84567ZM13.8924 9.47652C13.8924 9.37443 13.9227 9.27463 13.9794 9.18974C14.0361 9.10486 14.1167 9.03869 14.2111 8.99962C14.3054 8.96055 14.4092 8.95033 14.5093 8.97024C14.6094 8.99016 14.7014 9.03932 14.7736 9.11151C14.8458 9.1837 14.8949 9.27567 14.9149 9.3758C14.9348 9.47593 14.9246 9.57972 14.8855 9.67404C14.8464 9.76836 14.7802 9.84897 14.6954 9.90569C14.6105 9.9624 14.5107 9.99267 14.4086 9.99266C14.3407 9.99295 14.2735 9.97979 14.2107 9.95395C14.148 9.92811 14.091 9.89011 14.043 9.84212C13.995 9.79414 13.957 9.73713 13.9312 9.67438C13.9053 9.61163 13.8922 9.54438 13.8924 9.47652V9.47652ZM12 22C13.9778 22 15.9112 21.4135 17.5557 20.3147C19.2002 19.2159 20.4819 17.6541 21.2388 15.8268C21.9957 13.9996 22.1937 11.9889 21.8079 10.0491C21.422 8.10929 20.4696 6.32746 19.0711 4.92894C17.6725 3.53041 15.8907 2.578 13.9509 2.19215C12.0111 1.8063 10.0004 2.00433 8.17317 2.76121C6.3459 3.51809 4.78412 4.79981 3.6853 6.4443C2.58649 8.08879 2 10.0222 2 12C2.00291 14.6513 3.05742 17.1931 4.93215 19.0679C6.80688 20.9426 9.34873 21.9971 12 22V22ZM12 3.01483C13.7771 3.01483 15.5143 3.54181 16.9919 4.52911C18.4695 5.51641 19.6211 6.9197 20.3012 8.56153C20.9813 10.2034 21.1592 12.01 20.8125 13.7529C20.4658 15.4959 19.6101 17.0969 18.3535 18.3535C17.0969 19.6101 15.4959 20.4658 13.7529 20.8125C12.01 21.1592 10.2033 20.9813 8.56152 20.3012C6.9197 19.6212 5.51641 18.4695 4.5291 16.9919C3.5418 15.5143 3.01483 13.7771 3.01483 12C3.01762 9.61785 3.96517 7.33406 5.64961 5.64962C7.33405 3.96518 9.61784 3.01763 12 3.01483V3.01483Z" fill="#F3F3F4"/>
</svg>
