<svg width="24" height="24" viewBox="0 0 24 24" fill="none" xmlns="http://www.w3.org/2000/svg">
<path d="M17.4176 10.0039C17.3731 11.2394 16.999 12.4405 16.334 13.4827C15.1935 15.0795 12.5702 15.7638 11.1445 14.11C11.0494 15.4502 10.6179 16.7447 9.88981 17.8739C9.77581 17.9879 9.43356 18.5582 9.20547 18.5582C8.97738 18.5582 8.97738 18.2731 8.97738 18.102C8.88275 17.1077 8.9599 16.1046 9.20547 15.1365C9.43356 14.2241 9.66172 13.3686 9.88981 12.4562C10.0236 12.0511 10.0434 11.6171 9.94681 11.2015C9.76593 10.584 9.78591 9.92502 10.0039 9.3196C10.175 8.80633 10.5171 8.23609 11.0874 8.17907C11.3491 8.14596 11.6145 8.20082 11.8416 8.33504C12.0687 8.46925 12.2448 8.67519 12.342 8.92044C12.3891 9.26677 12.3499 9.61937 12.228 9.94692C12.0569 10.5172 11.8859 11.0875 11.7718 11.6578C11.5931 12.0912 11.5532 12.5694 11.6577 13.0265C11.7646 13.2867 11.9621 13.4995 12.2138 13.6253C12.4654 13.7511 12.7541 13.7814 13.0265 13.7108C13.551 13.5208 14.0192 13.2018 14.3879 12.7832C14.7567 12.3646 15.0141 11.8599 15.1365 11.3156C15.3681 10.6577 15.4162 9.94903 15.2755 9.26582C15.1348 8.58262 14.8107 7.95063 14.338 7.43771C13.9076 7.06195 13.3859 6.80614 12.8253 6.69602C12.2647 6.58589 11.685 6.62534 11.1445 6.81039C10.5318 6.98422 9.96688 7.29542 9.49256 7.72033C9.01823 8.14524 8.64701 8.67268 8.4071 9.26258C8.16081 9.86229 8.14056 10.531 8.3501 11.1445C8.57819 11.6007 8.86337 11.8289 8.86337 12.3421C8.86337 12.6273 8.80637 13.0835 8.46415 13.0835C8.18616 13.0539 7.92563 12.9337 7.72278 12.7413C7.31051 12.3775 6.99932 11.9132 6.81945 11.3936C6.63958 10.874 6.59713 10.3167 6.69622 9.77585C6.9112 8.50107 7.57598 7.34558 8.56998 6.51899C9.56397 5.6924 10.8213 5.24948 12.1139 5.27058C14.8513 5.27058 17.2465 6.92444 17.4176 10.0039ZM22 12C22 13.9778 21.4135 15.9112 20.3147 17.5557C19.2159 19.2002 17.6541 20.4819 15.8268 21.2388C13.9996 21.9957 11.9889 22.1937 10.0491 21.8079C8.10929 21.422 6.32746 20.4696 4.92894 19.0711C3.53041 17.6725 2.578 15.8907 2.19215 13.9509C1.8063 12.0111 2.00433 10.0004 2.76121 8.17317C3.51809 6.3459 4.79981 4.78412 6.4443 3.6853C8.08879 2.58649 10.0222 2 12 2C14.6513 2.00291 17.1931 3.05742 19.0679 4.93215C20.9426 6.80688 21.9971 9.34873 22 12V12ZM20.9852 12C20.9852 10.2229 20.4582 8.48571 19.4709 7.00811C18.4836 5.5305 17.0803 4.37885 15.4385 3.69879C13.7967 3.01872 11.99 2.84078 10.2471 3.18748C8.50413 3.53417 6.90313 4.38993 5.64653 5.64653C4.38993 6.90312 3.53418 8.50413 3.18748 10.2471C2.84079 11.99 3.01872 13.7967 3.69879 15.4385C4.37886 17.0803 5.53051 18.4836 7.00811 19.4709C8.48572 20.4582 10.2229 20.9852 12 20.9852C14.3822 20.9824 16.666 20.0348 18.3504 18.3504C20.0348 16.6659 20.9824 14.3822 20.9852 12V12Z" fill="#F3F3F4"/>
</svg>
