<svg width="24" height="24" viewBox="0 0 24 24" fill="none" xmlns="http://www.w3.org/2000/svg">
<path d="M14.1902 6.33008H12.3202V12.8501C12.332 13.3178 12.3086 13.7858 12.2502 14.2501C12.2091 14.6411 12.0271 15.0039 11.7382 15.2707C11.4493 15.5375 11.0733 15.6901 10.6802 15.7001C10.2213 15.6818 9.78797 15.4839 9.47368 15.1491C9.15939 14.8142 8.98933 14.3692 9.00019 13.9101C9.00019 13.0901 9.52019 12.5401 10.9402 12.2801C11.0502 12.2801 11.1202 12.2801 11.1202 12.0901V10.3601C8.33019 10.4301 7.21019 12.3601 7.21019 13.8801C7.18851 14.3551 7.26359 14.8297 7.43089 15.2748C7.59818 15.72 7.85418 16.1265 8.18337 16.4697C8.51256 16.813 8.90805 17.0857 9.34586 17.2714C9.78366 17.4571 10.2546 17.5519 10.7302 17.5501C11.2306 17.5159 11.7192 17.383 12.168 17.159C12.6167 16.9351 13.0167 16.6245 13.3449 16.2452C13.673 15.866 13.9229 15.4255 14.08 14.9492C14.2371 14.4729 14.2983 13.9702 14.2602 13.4701V10.0501C15.0415 10.5533 15.9625 10.7949 16.8902 10.7401V9.00008C16.1785 9.00274 15.4947 8.72325 14.9887 8.22281C14.4826 7.72237 14.1955 7.04177 14.1902 6.33008V6.33008Z" fill="#F3F3F4"/>
<path d="M12 2C10.0222 2 8.08879 2.58649 6.4443 3.6853C4.79981 4.78412 3.51809 6.3459 2.76121 8.17317C2.00433 10.0004 1.8063 12.0111 2.19215 13.9509C2.578 15.8907 3.53041 17.6725 4.92894 19.0711C6.32746 20.4696 8.10929 21.422 10.0491 21.8079C11.9889 22.1937 13.9996 21.9957 15.8268 21.2388C17.6541 20.4819 19.2159 19.2002 20.3147 17.5557C21.4135 15.9112 22 13.9778 22 12C22 10.6868 21.7413 9.38642 21.2388 8.17317C20.7363 6.95991 19.9997 5.85752 19.0711 4.92893C18.1425 4.00035 17.0401 3.26375 15.8268 2.7612C14.6136 2.25866 13.3132 2 12 2V2ZM12 21C10.22 21 8.47991 20.4722 6.99987 19.4832C5.51983 18.4943 4.36628 17.0887 3.68509 15.4442C3.0039 13.7996 2.82567 11.99 3.17294 10.2442C3.5202 8.49836 4.37737 6.89471 5.63604 5.63604C6.89472 4.37737 8.49836 3.5202 10.2442 3.17293C11.99 2.82567 13.7996 3.0039 15.4442 3.68508C17.0887 4.36627 18.4943 5.51983 19.4832 6.99987C20.4722 8.47991 21 10.22 21 12C21 14.3869 20.0518 16.6761 18.364 18.364C16.6761 20.0518 14.387 21 12 21V21Z" fill="#F3F3F4"/>
</svg>
