<svg width="24" height="24" viewBox="0 0 24 24" fill="none" xmlns="http://www.w3.org/2000/svg">
<path d="M10.0391 14.3381C9.59345 14.3294 9.16166 14.1818 8.80387 13.916C8.44608 13.6502 8.18013 13.2795 8.04307 12.8554C8.36713 12.8918 8.69504 12.8725 9.01259 12.7984C8.543 12.6865 8.12693 12.4148 7.83561 12.0298C7.5443 11.6449 7.39587 11.1707 7.41575 10.6884C7.872 10.8595 7.92902 10.9735 8.27116 10.9735C7.81457 10.676 7.48548 10.2188 7.34835 9.69131C7.21123 9.16387 7.27593 8.60424 7.5298 8.122C8.06376 8.78115 8.73097 9.32003 9.48772 9.70333C10.2445 10.0866 11.0737 10.3057 11.921 10.3461C11.8291 9.89083 11.8868 9.41803 12.0853 8.99811C12.2838 8.5782 12.6127 8.23363 13.0229 8.01571C13.4331 7.79779 13.9027 7.71817 14.3618 7.7887C14.8209 7.85923 15.2449 8.07614 15.5708 8.40714C16.0502 8.30585 16.5117 8.13282 16.9395 7.89387C16.9395 7.95087 16.8825 8.00798 16.8825 8.06494C16.7301 8.49886 16.4264 8.86331 16.0271 9.09149C16.4596 9.03837 16.8821 8.92312 17.2817 8.7493C16.9798 9.16528 16.6141 9.53097 16.1981 9.83287C16.2486 10.951 15.9939 12.0617 15.4615 13.0462C14.9291 14.0307 14.1389 14.8518 13.1757 15.4216C12.2041 15.9695 11.1019 16.243 9.98687 16.2129C8.87187 16.1827 7.78603 15.8501 6.84546 15.2506C7.98663 15.3563 9.12602 15.0308 10.0391 14.3381V14.3381ZM2 12C2 10.0222 2.58649 8.08879 3.6853 6.4443C4.78412 4.79981 6.3459 3.51809 8.17317 2.76121C10.0004 2.00433 12.0111 1.8063 13.9509 2.19215C15.8907 2.578 17.6725 3.53041 19.0711 4.92894C20.4696 6.32746 21.422 8.10929 21.8079 10.0491C22.1937 11.9889 21.9957 13.9996 21.2388 15.8268C20.4819 17.6541 19.2002 19.2159 17.5557 20.3147C15.9112 21.4135 13.9778 22 12 22C9.34873 21.9971 6.80688 20.9426 4.93215 19.0679C3.05742 17.1931 2.00291 14.6513 2 12V12ZM3.01483 12C3.01483 13.7771 3.5418 15.5143 4.5291 16.9919C5.51641 18.4695 6.9197 19.6212 8.56152 20.3012C10.2033 20.9813 12.01 21.1592 13.7529 20.8125C15.4959 20.4658 17.0969 19.6101 18.3535 18.3535C19.6101 17.0969 20.4658 15.4959 20.8125 13.7529C21.1592 12.01 20.9813 10.2034 20.3012 8.56153C19.6211 6.9197 18.4695 5.51641 16.9919 4.52911C15.5143 3.54181 13.7771 3.01483 12 3.01483C9.61784 3.01763 7.33405 3.96518 5.64961 5.64962C3.96517 7.33406 3.01762 9.61785 3.01483 12V12Z" fill="#F3F3F4"/>
</svg>
